<svg xmlns="http://www.w3.org/2000/svg" width="26" height="26" viewBox="0 0 26 26">
    <path data-name="Rectangle 70590" style="fill:none" d="M0 0h26v26H0z"/>
    <path data-name="Path 231157" d="M10.484 19.699H7.112a2.113 2.113 0 0 1-2.1-2.317 2.163 2.163 0 0 1 2.162-1.907.125.125 0 0 0 .126-.123v-3.5a5.839 5.839 0 0 1 3.8-5.475 1.822 1.822 0 0 1-.026-.314 2.063 2.063 0 1 1 4.125 0 1.911 1.911 0 0 1-.026.325 6 6 0 0 1 3.808 5.586v3.382a.124.124 0 0 0 .123.123 2.158 2.158 0 0 1 2.162 1.907 2.113 2.113 0 0 1-2.1 2.317H15.8a2.684 2.684 0 0 1-5.312 0zm2.654.94a1.34 1.34 0 0 0 1.276-.94h-2.548a1.339 1.339 0 0 0 1.272.945zM10.026 8.616a4.457 4.457 0 0 0-1.372 3.231v3.5a1.478 1.478 0 0 1-1.479 1.476.793.793 0 0 0-.813.684.733.733 0 0 0 .189.585.749.749 0 0 0 .562.247h12.056a.736.736 0 0 0 .558-.247.749.749 0 0 0 .2-.585.8.8 0 0 0-.816-.684 1.48 1.48 0 0 1-1.479-1.476v-3.382a4.593 4.593 0 0 0-4.321-4.611h-.167a4.438 4.438 0 0 0-3.119 1.266zm2.406-2.562a5.49 5.49 0 0 1 .92-.044 4.832 4.832 0 0 1 .5.039.709.709 0 0 0-1.417 0z"/>
</svg>
