<svg xmlns="http://www.w3.org/2000/svg" width="30" height="30" viewBox="0 0 30 30">
  <defs>
    <style>
      .cls-1 {
        fill: #1ba9f4;
      }

      .cls-2 {
        fill: #fff;
      }
    </style>
  </defs>
  <g id="Twitter" transform="translate(-307 -70.5)">
    <g id="In" transform="translate(307 70.5)">
      <g id="Group_1142" data-name="Group 1142">
        <path id="Path_1608" data-name="Path 1608" class="cls-1" d="M30,15A15,15,0,1,0,15,30,15,15,0,0,0,30,15Z"/>
      </g>
    </g>
    <g id="twitter_1_" data-name="twitter (1)" transform="translate(313.999 44.975)">
      <g id="Group_1143" data-name="Group 1143" transform="translate(0.001 33.299)">
        <path id="Path_1609" data-name="Path 1609" class="cls-2" d="M16.541,35.773a.5.5,0,0,0-.465-.234l-.828.072.792-1.6a.5.5,0,0,0-.662-.665l-2.1,1.026a3.54,3.54,0,0,0-4.025.533A4.286,4.286,0,0,0,7.93,38.355a7.213,7.213,0,0,1-5.7-3.879.5.5,0,0,0-.834-.059,3.4,3.4,0,0,0-.216,3.563c-.163-.041-.336-.1-.528-.161a.5.5,0,0,0-.646.551,4.167,4.167,0,0,0,2.366,3.152,4.16,4.16,0,0,1-.52.144.5.5,0,0,0-.261.823,6.709,6.709,0,0,0,3.264,1.737,5.6,5.6,0,0,1-4,.944A.5.5,0,0,0,.471,46c.717.791,3.331,1.682,6.078,1.749q.163,0,.333,0a8.806,8.806,0,0,0,6.309-2.244,8.926,8.926,0,0,0,2.575-4.739,9.216,9.216,0,0,0,.017-3.106c-.006-.04-.012-.083-.017-.12l.775-1.249A.5.5,0,0,0,16.541,35.773Z" transform="translate(-0.001 -33.299)"/>
      </g>
    </g>
  </g>
</svg>
